<?xml version="1.0" encoding="utf-8"?>
<!-- Generator: Adobe Illustrator 27.5.0, SVG Export Plug-In . SVG Version: 6.00 Build 0)  -->
<svg version="1.1" xmlns="http://www.w3.org/2000/svg" xmlns:xlink="http://www.w3.org/1999/xlink" x="0px" y="0px"
	 viewBox="0 0 500 500" style="enable-background:new 0 0 500 500;" xml:space="preserve">
<g id="BACKGROUND">
	<rect style="fill:#DADEE0;" width="500" height="500"/>
</g>
<g id="OBJECTS">
	<g>
		<path style="fill:#4D4D4D;" d="M329.896,432.749h-157.43c0,0-8.564,40.656-11.159,67.251h179.899
			C341.207,500,339.067,470.655,329.896,432.749z"/>
		<polygon style="fill:#FFAA8E;" points="223.116,202.259 223.116,253.845 271.147,253.845 269.199,201.301 		"/>
		<g>
			<path style="fill:#52A2E5;" d="M242.004,246.279l28.135-30.415c0,0,35.848-1.251,43.272-1.71
				c7.424-0.458,14.777,5.076,18.847,14.192c4.07,9.116,8.988,30.237,8.988,30.237l30.841,63.048v47c0,0-19.061,7.107-20.347,5.502
				c-1.285-1.605-35.553-45.624-35.553-45.624l2.57,49.98c1.499,10.316,21.631,74.282,22.06,75.887c0.429,1.605,0,5.044-2.355,5.961
				c-2.356,0.917-39.623,13.985-89.739,11.234l-6.719-30.722V246.279z"/>
			<path style="fill:#296BA3;" d="M348.386,325.147c0,0-5.233,13.671-8.52,33.768c6.239,8.008,11.392,14.615,11.875,15.219
				c1.285,1.605,20.347-5.502,20.347-5.502v-43.484H348.386z"/>
			<path style="fill:#296BA3;" d="M316.188,328.509l-3.355-50.132c0.57-11.005,3.355-35.766,3.355-35.766v35.308
				c4.641,23.078,16.65,71.973,16.65,71.973L316.188,328.509z"/>
			<path style="fill:#86C7FC;" d="M242.004,246.279l3.576-1.452c4.712,2.369,20.062,10.24,21.275,10.775
				c1.213,0.535,1.499,0.459,1.928-0.382c0.428-0.841,6.607-23.889,7.623-39.877c0,0-6.339-5.289-6.553-5.365
				C269.639,209.903,242.004,246.279,242.004,246.279z"/>
			<path style="fill:#FFAA8E;" d="M390.712,242.611c2.472-5.694,5.256-18.418,7.291-21.513c2.034-3.095,9.852-8.444,12.279-10.049
				c2.428-1.604,4.855-5.809,6.568-8.636c1.714-2.827,2.748-4.891,5.746-5.388c2.999-0.497,4.32-0.153,4.677,0.344
				c0.357,0.497,0.605,1.223-0.286,2.713c-0.893,1.49-2.249,4.356-3.069,6.228c-0.821,1.872-1.785,3.21-2.32,4.662
				c-0.536,1.452-2.339,6.515-2.339,6.515s7.497-2.35,9.96-3.611c2.463-1.261,2.837-1.892,3.267-2.923
				c0.428-1.032,2.516-6.19,3.962-8.884c1.445-2.694,3.426-3.497,5.141-3.497c1.713,0,2.087,1.032,1.659,1.949
				c-0.428,0.917-3.908,11.578-3.908,11.578l0.91,0.229c0,0,3.87-6.419,4.88-8.139c1.01-1.72,2.615-2.579,4.49-2.866
				c1.873-0.287,1.82,0.974,1.553,1.891c-0.268,0.917-3.748,9.572-4.713,12.037c-0.963,2.465-3.318,7.222-3.748,7.853
				c-0.428,0.63-4.176,3.038-5.301,3.439C436.286,226.944,390.712,242.611,390.712,242.611z"/>
			<path style="fill:#FFD2BE;" d="M358.095,310.779c0,0,20.562-33.167,22.702-40.045c2.143-6.878,10.138-28.735,10.138-28.735
				s8.995-6.725,13.136-8.406c4.141-1.682,9.995-4.127,11.138-5.961c1.142-1.834,2.071-6.496,4.354-9.782
				c2.285-3.287,6.783-4.051,7.068-2.904c0.285,1.146-1.714,6.572-2.499,11.922c0,0,4.783-3.057,6.854-4.356
				c2.071-1.299,3.069-5.272,5.212-8.559c2.141-3.287,8.781-6.649,8.924-4.204s-1.784,3.363-2.784,6.267
				c-1,2.904-2.142,8.33-3.142,10.011c-0.999,1.682-8.924,8.025-13.564,11.617c-4.641,3.591-15.064,11.463-15.421,12.686
				c-0.358,1.223-11.136,51.126-18.132,89.184c-1.572,10.393-7.997,24.607-16.136,28.43c-8.139,3.821-21.561-10.852-22.274-27.817
				C352.954,323.16,358.095,310.779,358.095,310.779z"/>
			<path style="fill:#86C7FC;" d="M358.095,310.779c0,0-1.714,10.088-1.714,16.049c0,5.961,2.855,28.888,17.563,37.905
				c9.71-1.681,18.135-25.22,18.135-25.22s1.569,4.28,1.285,6.114c-0.286,1.834-4.427,14.825-6.997,21.857
				c-2.57,7.031-8.282,15.284-15.135,16.354c-11.709-1.528-18.815-8.846-19.491-9.706c-0.676-0.859-7.211-11.846-7.354-13.985
				c-0.142-2.139,3.142-31.104,3.999-35.001c0.857-3.898,6.282-11.464,7.139-12.381
				C356.381,311.849,358.095,310.779,358.095,310.779z"/>
		</g>
		<g>
			<path style="fill:#52A2E5;" d="M242.004,246.279l-28.137-30.415c0,0-27.884-1.251-35.309-1.71
				c-7.424-0.458-14.777,5.076-18.848,14.192c-4.068,9.116-8.541,39.186-8.541,39.186l-28.225,60.06l-11.025,41.039
				c0,0,35.055,14.982,36.34,13.378c1.285-1.604,28.702-52.888,28.702-52.888l2.842,48.604
				c-1.499,10.316-18.056,78.961-18.483,80.566c-0.43,1.605,0,5.043,2.355,5.961c2.355,0.917,21.492,10.069,71.609,7.318
				l6.719-30.722V246.279z"/>
			<g>
				<rect x="241.315" y="246.279" style="fill:#296BA3;" width="1.376" height="194.57"/>
			</g>
			<path style="fill:#296BA3;" d="M176.962,329.121c0,0-9.386-54.719-10.303-68.169c-1.223,40.045-5.352,97.323-5.352,97.323
				L176.962,329.121z"/>
			<path style="fill:#296BA3;" d="M135.621,325.147c0,0,5.234,13.671,8.521,33.768c-6.24,8.008-11.393,14.615-11.876,15.219
				c-1.285,1.605-20.347-5.502-20.347-5.502v-43.484H135.621z"/>
			<path style="fill:#86C7FC;" d="M242.004,246.279l-3.577-1.452c-4.712,2.369-20.063,10.24-21.275,10.775
				c-1.212,0.535-1.499,0.459-1.927-0.382c-0.43-0.841-6.607-23.889-7.623-39.877c0,0,6.338-5.289,6.553-5.365
				C214.368,209.903,242.004,246.279,242.004,246.279z"/>
			<path style="fill:#FFAA8E;" d="M109.288,250.487c-2.472-5.694-5.256-18.418-7.29-21.513c-2.035-3.095-9.854-8.444-12.281-10.049
				c-2.426-1.605-4.854-5.809-6.567-8.636c-1.714-2.827-2.748-4.891-5.746-5.388c-2.998-0.497-4.32-0.153-4.677,0.344
				c-0.356,0.497-0.605,1.223,0.287,2.713c0.892,1.49,2.248,4.356,3.068,6.228c0.821,1.873,1.785,3.21,2.32,4.662
				c0.536,1.452,2.338,6.515,2.338,6.515s-7.496-2.35-9.959-3.611c-2.463-1.261-2.838-1.892-3.266-2.923
				c-0.429-1.032-2.517-6.19-3.962-8.884c-1.446-2.694-3.428-3.496-5.141-3.496c-1.714,0-2.088,1.031-1.66,1.949
				c0.429,0.917,3.909,11.578,3.909,11.578l-0.91,0.23c0,0-3.871-6.419-4.881-8.139c-1.01-1.719-2.615-2.579-4.49-2.866
				c-1.874-0.287-1.82,0.975-1.553,1.892c0.268,0.917,3.748,9.572,4.712,12.036c0.964,2.465,3.319,7.222,3.749,7.853
				c0.428,0.63,4.176,3.038,5.3,3.439C63.714,234.82,109.288,250.487,109.288,250.487z"/>
			<path style="fill:#FFD2BE;" d="M141.906,318.655c0,0-20.562-33.167-22.703-40.045c-2.143-6.878-10.138-28.735-10.138-28.735
				s-8.995-6.725-13.136-8.406c-4.14-1.681-9.995-4.126-11.137-5.961c-1.143-1.834-2.072-6.496-4.355-9.782
				c-2.285-3.286-6.783-4.051-7.068-2.904c-0.285,1.147,1.714,6.572,2.499,11.922c0,0-4.783-3.057-6.854-4.356
				c-2.07-1.299-3.069-5.273-5.212-8.559c-2.142-3.286-8.781-6.649-8.924-4.204c-0.143,2.446,1.785,3.363,2.784,6.267
				c0.999,2.904,2.143,8.33,3.142,10.011c1,1.681,8.924,8.024,13.564,11.616c4.641,3.592,15.063,11.463,15.421,12.686
				c0.357,1.223,11.136,51.126,18.133,89.184c1.57,10.394,7.996,24.608,16.136,28.429c8.138,3.821,21.561-10.852,22.273-27.817
				C147.047,331.035,141.906,318.655,141.906,318.655z"/>
			<path style="fill:#86C7FC;" d="M141.906,318.655c0,0,1.713,10.088,1.713,16.049s-2.856,28.888-17.563,37.904
				c-9.71-1.681-18.133-25.219-18.133-25.219s-1.57,4.28-1.285,6.114c0.285,1.834,4.427,14.825,6.997,21.857
				c2.57,7.031,8.28,15.283,15.134,16.353c11.709-1.527,18.815-8.846,19.491-9.705c0.676-0.859,7.211-11.846,7.354-13.985
				c0.142-2.14-3.142-31.104-3.998-35.001c-0.857-3.898-6.283-11.464-7.139-12.381C143.619,319.725,141.906,318.655,141.906,318.655
				z"/>
		</g>
		<g>
			<path style="fill:#FFD2BE;" d="M195.516,168.277c0,13.36,4.006,28.786,14.398,41.702c5.527,6.869,13.873,13.184,21.375,13.184
				c6.69,0,14.334-1.225,21.602-3.936c13.67-5.099,21.982-11.617,31.254-32.22c9.185-1.193,11.929-12.644,10.616-22.665
				c0,0,6.68-40.677-22.545-54.752c-29.226-14.076-56.342-12.876-67.994,2.385C185.734,136.19,195.516,168.277,195.516,168.277z"/>
			<path style="fill:#4D4D4D;" d="M224.74,135.712c3.221-2.624,8.589-4.056,10.736,1.432c2.146,5.487,6.321,13.718,11.809,17.058
				c5.487,3.34,7.277,2.981,7.516,2.147c0.238-0.835-0.716-7.038-0.716-7.038c9.781,8.35,17.057,11.451,22.307,13.003
				c0.477,3.221,1.552,12.167,3.341,11.332c1.788-0.835,3.459-8.23,3.459-8.23s2.445-5.308,6.44-4.593
				c3.997,0.716,4.993,3.994,5.39,6.381c1.589-2.504,3.08-9.184,3.14-10.794c2.744,1.908,5.01,0.537,5.01,0.179
				c0-0.358-3.279-4.355-3.638-12.228c-0.358-7.873-1.313-19.861-3.777-25.427c-2.467-5.566-16.384-22.584-38.173-26.641
				c-21.789-4.056-31.001,1.479-35.308,5.726c-4.216-2.544-12.565-4.533-16.62-1.272c-4.056,3.261-13.123,18.529-17.815,24.414
				c-4.689,5.885-7.554,9.703-6.918,14.951c0.637,5.249,5.169,19.881,5.249,22.346c0.08,2.466-1.67,4.692-2.941,4.93
				c-1.272,0.239,1.905,6.63,11.409,1.327c0.041-1.883,0.201-3.235,0.201-3.235s7.395-9.383,8.19-16.064
				c1.271,4.692,1.511,7.635,2.227,7.635c0.716,0,6.478-4.553,7.913-10.061c1.849-7.097,2.803-9.125,4.651-9.125
				C219.672,133.864,222.475,134.639,224.74,135.712z"/>
			<path style="fill:#3D3D3D;" d="M214.125,171.379c0,2.305-1.55,4.175-3.46,4.175c-1.91,0-3.46-1.87-3.46-4.175
				c0-2.306,1.55-4.175,3.46-4.175C212.575,167.204,214.125,169.073,214.125,171.379z"/>
			<path style="fill:#3D3D3D;" d="M256.351,171.379c0,2.305-1.548,4.175-3.459,4.175c-1.91,0-3.458-1.87-3.458-4.175
				c0-2.306,1.548-4.175,3.458-4.175C254.803,167.204,256.351,169.073,256.351,171.379z"/>
			<path style="fill:#3D3D3D;" d="M203.297,162.4c2.347-1.081,5.399-1.905,10.008-1.784c2.205,0.059,0.332-3.024-1.723-3.191
				c-2.055-0.167-5.77,0.127-8.513,3.686C202.213,162.221,202.509,162.763,203.297,162.4z"/>
			<path style="fill:#3D3D3D;" d="M257.276,158.508c-2.53,0.522-5.691,0.634-10.151-0.529c-2.136-0.556-1.008,2.871,0.956,3.499
				c1.963,0.627,5.647,1.182,9.126-1.663C258.292,158.927,258.126,158.332,257.276,158.508z"/>
			<path style="fill:#DA8E80;" d="M227.105,181.435c0,0-0.01,5.799-0.01,6.446c0,0.645,0.846,3.817,0.846,3.817
				s-3.439-0.477-4.105-3.022C223.512,187.439,226.877,180.523,227.105,181.435z"/>
			<path style="fill:#DA5C44;" d="M224.563,201.04c0,0,0.201-0.026,0.507-0.028c0.302-0.019,0.759-0.011,1.312,0.007
				c0.274-0.002,0.57,0.038,0.885,0.064c0.314,0.035,0.645,0.047,0.985,0.104c0.671,0.143,1.408,0.197,2.101,0.425
				c0.351,0.097,0.7,0.193,1.045,0.289c0.352,0.076,0.665,0.243,0.982,0.358c0.315,0.125,0.618,0.247,0.905,0.36
				c0.294,0.1,0.55,0.243,0.781,0.379c0.94,0.518,1.564,0.864,1.564,0.864l0.139,0.077c0.586,0.324,1.329,0.111,1.651-0.477
				c0.33-0.588,0.113-1.329-0.475-1.656c-0.029-0.015-0.063-0.031-0.092-0.044c0,0-0.744-0.333-1.857-0.832
				c-0.279-0.129-0.575-0.261-0.916-0.348c-0.33-0.1-0.683-0.206-1.047-0.316c-0.363-0.097-0.725-0.247-1.123-0.3
				c-0.385-0.072-0.779-0.145-1.174-0.218c-0.781-0.179-1.586-0.177-2.327-0.263c-0.371-0.027-0.733-0.013-1.075-0.021
				c-0.341,0-0.662-0.013-0.962,0.015c-0.592,0.031-1.091,0.066-1.45,0.12c-0.365,0.039-0.539,0.078-0.539,0.078l-0.055,0.012
				c-0.37,0.082-0.604,0.448-0.524,0.818C223.881,200.855,224.214,201.081,224.563,201.04z"/>
			<path style="fill:#DA8E80;" d="M230.204,191.339c0,0,1.296-2.187,2.25-1.988c0.954,0.199,1.034,1.511,1.034,1.511
				L230.204,191.339z"/>
		</g>
		<g>
			<path style="fill:#FCFCFC;" d="M255.385,270.734c0,2.279-1.848,4.127-4.127,4.127c-2.278,0-4.126-1.848-4.126-4.127
				s1.848-4.127,4.126-4.127C253.537,266.607,255.385,268.455,255.385,270.734z"/>
			<path style="fill:#FCFCFC;" d="M255.385,323.924c0,2.279-1.848,4.127-4.127,4.127s-4.126-1.848-4.126-4.127
				c0-2.28,1.847-4.127,4.126-4.127S255.385,321.644,255.385,323.924z"/>
			<path style="fill:#FCFCFC;" d="M255.385,377.113c0,2.279-1.848,4.127-4.127,4.127c-2.278,0-4.126-1.848-4.126-4.127
				s1.848-4.127,4.126-4.127C253.537,372.986,255.385,374.834,255.385,377.113z"/>
			<path style="fill:#FCFCFC;" d="M255.385,430.303c0,2.279-1.848,4.127-4.127,4.127c-2.278,0-4.126-1.848-4.126-4.127
				c0-2.278,1.848-4.126,4.126-4.126C253.537,426.177,255.385,428.024,255.385,430.303z"/>
		</g>
	</g>
</g>
</svg>
